<svg width="720" height="520" viewBox="0 0 720 520" fill="none" xmlns="http://www.w3.org/2000/svg">
<rect width="720" height="520" rx="48" fill="url(#bg)"/>
<ellipse cx="360" cy="414" rx="192" ry="30" fill="#B7D8E7" fill-opacity=".45"/>
<ellipse cx="360" cy="274" rx="180" ry="116" fill="url(#body)"/>
<ellipse cx="360" cy="286" rx="92" ry="78" fill="#FFF9F0"/>
<circle cx="314" cy="250" r="12" fill="#294E75"/>
<circle cx="406" cy="250" r="12" fill="#294E75"/>
<circle cx="317" cy="252" r="4" fill="white"/>
<circle cx="409" cy="252" r="4" fill="white"/>
<ellipse cx="360" cy="272" rx="18" ry="12" fill="#5E4636"/>
<path d="M348 296C355 307 365 307 372 296" stroke="#E59DB8" stroke-width="8" stroke-linecap="round"/>
<path d="M244 244C232 216 250 184 292 196" stroke="#7B6E63" stroke-width="18" stroke-linecap="round"/>
<path d="M476 244C488 216 470 184 428 196" stroke="#7B6E63" stroke-width="18" stroke-linecap="round"/>
<defs>
<linearGradient id="bg" x1="0" y1="0" x2="720" y2="520" gradientUnits="userSpaceOnUse">
<stop stop-color="#F1F8FF"/>
<stop offset="1" stop-color="#DDF1EA"/>
</linearGradient>
<linearGradient id="body" x1="180" y1="158" x2="540" y2="390" gradientUnits="userSpaceOnUse">
<stop stop-color="#C7B6A2"/>
<stop offset="1" stop-color="#7B6E63"/>
</linearGradient>
</defs>
</svg>
