<svg width="1600" height="900" viewBox="0 0 1600 900" fill="none" xmlns="http://www.w3.org/2000/svg">
<rect width="1600" height="900" rx="48" fill="#EAF6FF"/>
<rect x="72" y="76" width="1456" height="748" rx="40" fill="url(#paint0_linear)"/>
<rect x="120" y="130" width="520" height="560" rx="32" fill="#F8FDFF"/>
<rect x="720" y="140" width="760" height="320" rx="36" fill="#F5FBFF"/>
<rect x="720" y="500" width="360" height="250" rx="30" fill="#FFFFFF"/>
<rect x="1120" y="500" width="360" height="250" rx="30" fill="#F7FCFF"/>
<rect x="162" y="180" width="436" height="84" rx="22" fill="#D9ECFF"/>
<rect x="162" y="288" width="340" height="26" rx="13" fill="#B7D7F5"/>
<rect x="162" y="328" width="300" height="26" rx="13" fill="#B7D7F5"/>
<rect x="162" y="420" width="180" height="180" rx="90" fill="#BDE9D9"/>
<circle cx="252" cy="490" r="52" fill="#F4B89F"/>
<path d="M190 560C204 518 234 498 252 498C270 498 300 518 314 560" fill="#3D78B9"/>
<rect x="376" y="430" width="180" height="22" rx="11" fill="#A3C7EB"/>
<rect x="376" y="468" width="200" height="22" rx="11" fill="#A3C7EB"/>
<rect x="376" y="506" width="150" height="22" rx="11" fill="#A3C7EB"/>
<rect x="812" y="206" width="194" height="160" rx="28" fill="#D7F1E6"/>
<rect x="1034" y="206" width="194" height="160" rx="28" fill="#DBEEFF"/>
<rect x="1256" y="206" width="150" height="160" rx="28" fill="#FFF0D8"/>
<circle cx="910" cy="286" r="46" fill="#4CC59C"/>
<circle cx="910" cy="286" r="22" fill="#F8FDFF"/>
<circle cx="1131" cy="286" r="46" fill="#5FA8E8"/>
<path d="M1108 286H1154" stroke="#F8FDFF" stroke-width="14" stroke-linecap="round"/>
<path d="M1131 263V309" stroke="#F8FDFF" stroke-width="14" stroke-linecap="round"/>
<rect x="1278" y="234" width="106" height="106" rx="30" fill="#F2BC7B"/>
<path d="M1331 258V316" stroke="#F8FDFF" stroke-width="18" stroke-linecap="round"/>
<path d="M1302 287H1360" stroke="#F8FDFF" stroke-width="18" stroke-linecap="round"/>
<rect x="780" y="542" width="240" height="28" rx="14" fill="#D0E4F8"/>
<rect x="780" y="590" width="280" height="28" rx="14" fill="#D0E4F8"/>
<rect x="780" y="638" width="220" height="28" rx="14" fill="#D0E4F8"/>
<rect x="1180" y="552" width="140" height="140" rx="70" fill="#FFE5C8"/>
<path d="M1128 662C1148 620 1178 598 1216 598C1254 598 1284 620 1304 662" fill="#5A88B3"/>
<circle cx="1216" cy="606" r="44" fill="#F0BC9E"/>
<defs>
<linearGradient id="paint0_linear" x1="800" y1="76" x2="800" y2="824" gradientUnits="userSpaceOnUse">
<stop stop-color="#E7F4FF"/>
<stop offset="1" stop-color="#F6FBFF"/>
</linearGradient>
</defs>
</svg>
