<svg width="1600" height="900" viewBox="0 0 1600 900" fill="none" xmlns="http://www.w3.org/2000/svg">
<rect width="1600" height="900" rx="48" fill="#EEF8F4"/>
<rect x="72" y="76" width="1456" height="748" rx="40" fill="url(#paint0_linear)"/>
<rect x="116" y="124" width="640" height="632" rx="36" fill="#FBFEFD"/>
<rect x="802" y="124" width="642" height="280" rx="34" fill="#F8FFFC"/>
<rect x="802" y="438" width="642" height="318" rx="34" fill="#FFFFFF"/>
<rect x="164" y="178" width="420" height="72" rx="18" fill="#DDF3EA"/>
<rect x="164" y="276" width="300" height="24" rx="12" fill="#B5DFCF"/>
<rect x="164" y="314" width="260" height="24" rx="12" fill="#B5DFCF"/>
<circle cx="312" cy="516" r="72" fill="#FFE1C7"/>
<circle cx="432" cy="536" r="92" fill="#D5F1E2"/>
<path d="M246 650C268 594 300 566 334 566C370 566 404 598 424 650" fill="#3E79B8"/>
<path d="M338 650C360 586 408 552 458 552C514 552 564 592 590 650" fill="#49BE93"/>
<circle cx="432" cy="520" r="42" fill="#F4BDA2"/>
<rect x="828" y="176" width="182" height="164" rx="28" fill="#D9F1E5"/>
<rect x="1040" y="176" width="182" height="164" rx="28" fill="#E1F3FF"/>
<rect x="1252" y="176" width="164" height="164" rx="28" fill="#FFF0DA"/>
<circle cx="919" cy="258" r="46" fill="#44C092"/>
<circle cx="919" cy="258" r="22" fill="#F8FDFF"/>
<path d="M1114 214V302" stroke="#5BA3E6" stroke-width="22" stroke-linecap="round"/>
<path d="M1070 258H1158" stroke="#5BA3E6" stroke-width="22" stroke-linecap="round"/>
<rect x="866" y="486" width="230" height="220" rx="28" fill="#F8FFFC"/>
<rect x="1128" y="486" width="252" height="220" rx="28" fill="#F7FBFF"/>
<rect x="908" y="530" width="146" height="112" rx="26" fill="#D8F1E7"/>
<rect x="1180" y="534" width="148" height="38" rx="19" fill="#D8EAFB"/>
<rect x="1180" y="592" width="106" height="38" rx="19" fill="#D8EAFB"/>
<defs>
<linearGradient id="paint0_linear" x1="800" y1="76" x2="800" y2="824" gradientUnits="userSpaceOnUse">
<stop stop-color="#EAF8F3"/>
<stop offset="1" stop-color="#FBFEFD"/>
</linearGradient>
</defs>
</svg>
