<svg xmlns="http://www.w3.org/2000/svg" viewBox="0 0 640 440" role="img" aria-label="Admin panel image">
  <rect width="640" height="440" fill="#eef7ff"/>
  <rect x="64" y="84" width="230" height="256" rx="22" fill="#fff" stroke="#c5def3"/>
  <rect x="96" y="120" width="166" height="26" rx="12" fill="#e4f2ff"/>
  <rect x="96" y="162" width="126" height="16" rx="8" fill="#ecf7ff"/>
  <rect x="96" y="190" width="148" height="16" rx="8" fill="#ecf7ff"/>
  <rect x="96" y="218" width="132" height="16" rx="8" fill="#ecf7ff"/>
  <rect x="96" y="246" width="170" height="16" rx="8" fill="#ecf7ff"/>
  <rect x="332" y="84" width="244" height="256" rx="22" fill="#fff" stroke="#c5def3"/>
  <circle cx="382" cy="142" r="30" fill="#66cbb0"/>
  <circle cx="454" cy="142" r="30" fill="#58b0e6"/>
  <circle cx="526" cy="142" r="30" fill="#f0b060"/>
  <rect x="366" y="192" width="178" height="20" rx="10" fill="#e5f3ff"/>
  <rect x="366" y="224" width="144" height="20" rx="10" fill="#edf8ff"/>
  <rect x="366" y="256" width="162" height="20" rx="10" fill="#edf8ff"/>
  <rect x="34" y="332" width="572" height="76" rx="18" fill="#ffffff" stroke="#c6dff4"/>
  <text x="62" y="378" font-size="36" font-family="Arial, sans-serif" fill="#2b5f93" font-weight="700">CRM администратора клиники</text>
</svg>
