<svg width="640" height="420" viewBox="0 0 640 420" xmlns="http://www.w3.org/2000/svg">
  <defs>
    <linearGradient id="bg3" x1="0" y1="0" x2="1" y2="1">
      <stop offset="0%" stop-color="#dff2ff"/>
      <stop offset="100%" stop-color="#ecfff7"/>
    </linearGradient>
  </defs>
  <rect width="640" height="420" rx="28" fill="url(#bg3)"/>
  <rect x="180" y="100" width="280" height="240" rx="18" fill="#ffffff" stroke="#cce2ec" stroke-width="4"/>
  <rect x="280" y="250" width="80" height="90" rx="10" fill="#e9f6fd"/>
  <rect x="210" y="130" width="48" height="48" rx="8" fill="#d9eff9"/>
  <rect x="275" y="130" width="48" height="48" rx="8" fill="#d9eff9"/>
  <rect x="340" y="130" width="48" height="48" rx="8" fill="#d9eff9"/>
  <rect x="405" y="130" width="24" height="48" rx="8" fill="#d9eff9"/>
  <rect x="210" y="195" width="48" height="48" rx="8" fill="#d9eff9"/>
  <rect x="275" y="195" width="48" height="48" rx="8" fill="#d9eff9"/>
  <rect x="340" y="195" width="48" height="48" rx="8" fill="#d9eff9"/>
  <circle cx="320" cy="72" r="46" fill="#2aa6da"/>
  <path d="M320 46 v52" stroke="#fff" stroke-width="10" stroke-linecap="round"/>
  <path d="M294 72 h52" stroke="#fff" stroke-width="10" stroke-linecap="round"/>
  <ellipse cx="320" cy="360" rx="200" ry="30" fill="#b9dbe8" opacity="0.45"/>
  <text x="320" y="392" font-family="Segoe UI, sans-serif" font-size="28" text-anchor="middle" fill="#2b556b">Saint Petersburg Vet Clinic</text>
</svg>
