<svg width="640" height="420" viewBox="0 0 640 420" xmlns="http://www.w3.org/2000/svg">
  <defs>
    <linearGradient id="bg4" x1="0" y1="0" x2="1" y2="1">
      <stop offset="0%" stop-color="#dcf4ff"/>
      <stop offset="100%" stop-color="#ebfff6"/>
    </linearGradient>
  </defs>
  <rect width="640" height="420" rx="28" fill="url(#bg4)"/>
  <rect x="120" y="210" width="400" height="70" rx="14" fill="#ffffff" stroke="#c9e1ec" stroke-width="4"/>
  <rect x="120" y="190" width="50" height="90" rx="10" fill="#2aa6da"/>
  <rect x="450" y="190" width="70" height="90" rx="12" fill="#d8f2ff"/>
  <rect x="185" y="190" width="250" height="55" rx="16" fill="#f5fbff" stroke="#d4eaf3"/>
  <circle cx="210" cy="170" r="26" fill="#4a6f80"/>
  <rect x="235" y="155" width="70" height="22" rx="10" fill="#4a6f80"/>
  <rect x="320" y="145" width="60" height="10" rx="5" fill="#2bc8a1"/>
  <rect x="320" y="162" width="90" height="10" rx="5" fill="#2aa6da"/>
  <rect x="320" y="179" width="50" height="10" rx="5" fill="#89b1c5"/>
  <circle cx="525" cy="120" r="52" fill="#2aa6da" opacity="0.85"/>
  <path d="M525 95 v48" stroke="#fff" stroke-width="8" stroke-linecap="round"/>
  <path d="M501 119 h48" stroke="#fff" stroke-width="8" stroke-linecap="round"/>
  <text x="320" y="392" font-family="Segoe UI, sans-serif" font-size="28" text-anchor="middle" fill="#2b556b">Inpatient Monitoring</text>
</svg>
