<svg xmlns="http://www.w3.org/2000/svg" viewBox="0 0 640 440" role="img" aria-label="Public prescription image">
  <rect width="640" height="440" fill="#dff2f0"/>
  <rect x="180" y="86" width="280" height="250" rx="24" fill="#fff" stroke="#b9d9ee"/>
  <rect x="222" y="124" width="198" height="24" rx="12" fill="#e6f3ff"/>
  <rect x="222" y="164" width="146" height="16" rx="8" fill="#ecf7ff"/>
  <rect x="222" y="194" width="182" height="16" rx="8" fill="#ecf7ff"/>
  <rect x="222" y="224" width="120" height="16" rx="8" fill="#ecf7ff"/>
  <rect x="98" y="168" width="62" height="122" rx="16" fill="#37abe2"/>
  <rect x="478" y="168" width="62" height="122" rx="16" fill="#cce6f7"/>
  <circle cx="228" cy="94" r="30" fill="#466b82"/>
  <rect x="264" y="76" width="88" height="36" rx="18" fill="#4f6e82"/>
  <rect x="366" y="76" width="68" height="12" rx="6" fill="#1eb995"/>
  <rect x="366" y="94" width="56" height="10" rx="5" fill="#4ca8d8"/>
  <circle cx="544" cy="62" r="42" fill="#36b5e4"/>
  <path d="M544 42 V82 M524 62 H564" stroke="#fff" stroke-width="8" stroke-linecap="round"/>
</svg>
