<svg xmlns="http://www.w3.org/2000/svg" viewBox="0 0 640 440" role="img" aria-label="Vet panel image">
  <rect width="640" height="440" fill="#e9f5ff"/>
  <circle cx="208" cy="158" r="74" fill="#ffe0ce"/>
  <rect x="122" y="224" width="176" height="178" rx="88" fill="#d8edff"/>
  <rect x="184" y="236" width="52" height="110" rx="10" fill="#3cb1e6"/>
  <path d="M210 224 L226 244 L248 224" stroke="#23507f" stroke-width="6" fill="none"/>
  <rect x="346" y="110" width="236" height="244" rx="26" fill="#fff" stroke="#c8e3f8"/>
  <rect x="378" y="146" width="170" height="24" rx="12" fill="#dff0ff"/>
  <rect x="378" y="186" width="132" height="18" rx="9" fill="#e9f6ff"/>
  <rect x="378" y="220" width="168" height="18" rx="9" fill="#e9f6ff"/>
  <rect x="378" y="254" width="120" height="18" rx="9" fill="#e9f6ff"/>
  <circle cx="526" cy="296" r="20" fill="#53c9ab"/>
  <path d="M526 284 V308 M514 296 H538" stroke="#fff" stroke-width="4" stroke-linecap="round"/>
  <rect x="34" y="332" width="572" height="76" rx="18" fill="#ffffff" stroke="#c6dff4"/>
  <text x="62" y="378" font-size="36" font-family="Arial, sans-serif" fill="#2b5f93" font-weight="700">Кабинет ветеринарного врача</text>
</svg>
