<svg width="640" height="420" viewBox="0 0 640 420" xmlns="http://www.w3.org/2000/svg">
  <defs>
    <linearGradient id="bg2" x1="0" y1="0" x2="1" y2="1">
      <stop offset="0%" stop-color="#dff3ff"/>
      <stop offset="100%" stop-color="#f0fff7"/>
    </linearGradient>
  </defs>
  <rect width="640" height="420" rx="28" fill="url(#bg2)"/>
  <ellipse cx="320" cy="360" rx="180" ry="26" fill="#b9dbe8" opacity="0.5"/>
  <circle cx="320" cy="130" r="68" fill="#ffd8b8"/>
  <rect x="230" y="185" width="180" height="150" rx="26" fill="#ffffff"/>
  <rect x="250" y="205" width="140" height="118" rx="18" fill="#f4fbff" stroke="#cbe3ef"/>
  <path d="M300 220 h40 v30 h30 v40 h-30 v30 h-40 v-30 h-30 v-40 h30z" fill="#2aa6da"/>
  <rect x="262" y="95" width="35" height="12" rx="6" fill="#243f52"/>
  <rect x="343" y="95" width="35" height="12" rx="6" fill="#243f52"/>
  <path d="M290 150 Q320 170 350 150" stroke="#c17365" stroke-width="6" fill="none" stroke-linecap="round"/>
  <circle cx="495" cy="120" r="46" fill="#2bc8a1" opacity="0.85"/>
  <path d="M495 97 v46" stroke="#fff" stroke-width="8" stroke-linecap="round"/>
  <path d="M472 120 h46" stroke="#fff" stroke-width="8" stroke-linecap="round"/>
  <text x="320" y="388" font-family="Segoe UI, sans-serif" font-size="28" text-anchor="middle" fill="#2b556b">Vet Assistant</text>
</svg>
