<svg width="1200" height="800" viewBox="0 0 1200 800" fill="none" xmlns="http://www.w3.org/2000/svg">
<rect width="1200" height="800" rx="48" fill="url(#bg)"/>
<g filter="url(#shadow)">
<rect x="176" y="132" width="848" height="536" rx="36" fill="white"/>
</g>
<rect x="176" y="132" width="848" height="120" rx="36" fill="#7B8BE0"/>
<text x="236" y="208" fill="white" font-family="Arial, sans-serif" font-size="54" font-weight="700">Адеметионин</text>
<text x="236" y="300" fill="#244B73" font-family="Arial, sans-serif" font-size="42" font-weight="700">Гепатопротектор</text>
<text x="236" y="356" fill="#4B6F92" font-family="Arial, sans-serif" font-size="30">Таблетки / инъекция</text>
<rect x="236" y="420" width="330" height="96" rx="28" fill="#F0F1FF"/>
<text x="276" y="478" fill="#6677D6" font-family="Arial, sans-serif" font-size="34" font-weight="700">Liver support</text>
<ellipse cx="816" cy="404" rx="106" ry="94" fill="#EEF0FF"/>
<path d="M748 400C772 362 834 350 880 384C860 450 802 486 748 400Z" fill="#7B8BE0" fill-opacity=".28"/>
<path d="M764 406C792 380 834 372 866 396" stroke="#7B8BE0" stroke-width="24" stroke-linecap="round"/>
<defs>
<linearGradient id="bg" x1="0" y1="0" x2="1200" y2="800" gradientUnits="userSpaceOnUse">
<stop stop-color="#F4F6FF"/>
<stop offset="1" stop-color="#E1F0ED"/>
</linearGradient>
<filter id="shadow" x="140" y="108" width="920" height="608" filterUnits="userSpaceOnUse" color-interpolation-filters="sRGB">
<feDropShadow dx="0" dy="18" stdDeviation="18" flood-color="#5C8BA9" flood-opacity=".18"/>
</filter>
</defs>
</svg>
