<svg width="1200" height="800" viewBox="0 0 1200 800" fill="none" xmlns="http://www.w3.org/2000/svg">
<rect width="1200" height="800" rx="48" fill="url(#bg)"/>
<g filter="url(#shadow)">
<rect x="176" y="132" width="848" height="536" rx="36" fill="white"/>
</g>
<rect x="176" y="132" width="848" height="120" rx="36" fill="#D87C72"/>
<text x="236" y="208" fill="white" font-family="Arial, sans-serif" font-size="56" font-weight="700">Клопидогрел</text>
<text x="236" y="300" fill="#244B73" font-family="Arial, sans-serif" font-size="42" font-weight="700">Кардиологический препарат</text>
<text x="236" y="356" fill="#4B6F92" font-family="Arial, sans-serif" font-size="30">Таблетки</text>
<rect x="236" y="420" width="330" height="96" rx="28" fill="#FFF0EE"/>
<text x="276" y="478" fill="#C35E54" font-family="Arial, sans-serif" font-size="34" font-weight="700">Rx / мониторинг</text>
<path d="M774 340C826 286 908 324 908 392C908 472 810 532 810 532C810 532 712 472 712 392C712 324 794 286 846 340" fill="#F5E5E1"/>
<path d="M768 396H852" stroke="#D87C72" stroke-width="28" stroke-linecap="round"/>
<path d="M810 354V438" stroke="#58C0C6" stroke-width="28" stroke-linecap="round"/>
<defs>
<linearGradient id="bg" x1="0" y1="0" x2="1200" y2="800" gradientUnits="userSpaceOnUse">
<stop stop-color="#FFF7F5"/>
<stop offset="1" stop-color="#E6F3F4"/>
</linearGradient>
<filter id="shadow" x="140" y="108" width="920" height="608" filterUnits="userSpaceOnUse" color-interpolation-filters="sRGB">
<feDropShadow dx="0" dy="18" stdDeviation="18" flood-color="#5C8BA9" flood-opacity=".18"/>
</filter>
</defs>
</svg>
